<svg width="14" height="14" viewBox="0 0 14 14" fill="none" xmlns="http://www.w3.org/2000/svg">
<path d="M13.1891 5.16509L9.2219 4.58853L7.44847 0.993219C7.40003 0.894781 7.32034 0.815094 7.2219 0.766656C6.97503 0.644781 6.67503 0.746344 6.55159 0.993219L4.77815 4.58853L0.810967 5.16509C0.701592 5.18072 0.601592 5.23228 0.525029 5.31041C0.432469 5.40554 0.381465 5.53353 0.383223 5.66625C0.384981 5.79897 0.439357 5.92557 0.534404 6.01822L3.40472 8.81666L2.72659 12.7682C2.71069 12.8601 2.72086 12.9547 2.75595 13.0411C2.79105 13.1276 2.84966 13.2024 2.92514 13.2572C3.00062 13.3121 3.08995 13.3446 3.183 13.3513C3.27605 13.3579 3.3691 13.3383 3.45159 13.2948L7.00003 11.4292L10.5485 13.2948C10.6453 13.3463 10.7578 13.3635 10.8657 13.3448C11.1375 13.2979 11.3203 13.0401 11.2735 12.7682L10.5953 8.81666L13.4657 6.01822C13.5438 5.94166 13.5953 5.84166 13.611 5.73228C13.6532 5.45884 13.4625 5.20572 13.1891 5.16509Z" fill="#FEA250"/>
</svg>
