<svg width="14" height="10" viewBox="0 0 14 10" fill="none" xmlns="http://www.w3.org/2000/svg">
<path d="M5.39608 9.27956C5.26482 9.27983 5.13479 9.25417 5.01346 9.20406C4.89214 9.15395 4.7819 9.08038 4.68908 8.98756L0.447083 4.74456C0.35151 4.65238 0.275252 4.54209 0.222758 4.42013C0.170265 4.29816 0.142587 4.16696 0.14134 4.03418C0.140094 3.9014 0.165303 3.76971 0.215497 3.64678C0.265691 3.52385 0.339864 3.41214 0.43369 3.31819C0.527515 3.22423 0.639113 3.1499 0.761973 3.09953C0.884832 3.04916 1.01649 3.02377 1.14927 3.02482C1.28205 3.02588 1.41329 3.05337 1.53533 3.1057C1.65737 3.15802 1.76777 3.23412 1.86008 3.32956L5.39508 6.86456L11.7601 0.501562C11.9476 0.313921 12.202 0.208453 12.4672 0.208359C12.7325 0.208265 12.9869 0.313553 13.1746 0.501061C13.3622 0.68857 13.4677 0.942938 13.4678 1.20821C13.4679 1.47348 13.3626 1.72792 13.1751 1.91556L6.10308 8.98756C6.01026 9.08038 5.90003 9.15395 5.7787 9.20406C5.65738 9.25417 5.52735 9.27983 5.39608 9.27956Z" fill="#2FAB73"/>
</svg>
