<svg width="25" height="25" viewBox="0 0 25 25" fill="none" xmlns="http://www.w3.org/2000/svg">
<path d="M12.1215 2.17236C6.60746 2.17236 2.12146 6.65836 2.12146 12.1724C2.12146 17.6864 6.60746 22.1724 12.1215 22.1724C17.6355 22.1724 22.1215 17.6864 22.1215 12.1724C22.1215 6.65836 17.6355 2.17236 12.1215 2.17236ZM10.1225 16.5854L7.11691 13.5863C6.72616 13.1964 6.72537 12.5636 7.11515 12.1727V12.1727C7.50517 11.7815 8.13847 11.7808 8.52939 12.1711L10.1205 13.7594L14.7075 9.17236C15.0979 8.7819 15.731 8.7819 16.1215 9.17236V9.17236C16.5119 9.56283 16.5119 10.1959 16.1215 10.5864L10.1225 16.5854Z" fill="#2FAB73"/>
</svg>
